<svg xmlns="http://www.w3.org/2000/svg" viewBox="-1059.5 1368 37.5 31.4"><defs><style>.a{fill:#fff;}</style></defs><path class="a" d="M900.4,404.3a13.909,13.909,0,0,1-4.9,1.9,7.709,7.709,0,0,0-5.6-2.5,7.812,7.812,0,0,0-7.7,7.9,11.015,11.015,0,0,0,.2,1.8,21.653,21.653,0,0,1-15.8-8.2,7.674,7.674,0,0,0-1,4,8.329,8.329,0,0,0,3.4,6.6,7.108,7.108,0,0,1-3.5-1v.1a7.75,7.75,0,0,0,6.2,7.7,6.447,6.447,0,0,1-2,.3,6.15,6.15,0,0,1-1.4-.1,7.844,7.844,0,0,0,7.2,5.5,15.1,15.1,0,0,1-9.5,3.4,10.868,10.868,0,0,1-1.8-.1,21.538,21.538,0,0,0,11.8,3.5c14.1,0,21.9-12,21.9-22.4v-1a14.874,14.874,0,0,0,3.8-4.1,13.725,13.725,0,0,1-4.4,1.2A9.842,9.842,0,0,0,900.4,404.3Z" transform="translate(-1923.7 964.3)"/></svg>